# Blender 4.3.0
# www.blender.org
mtllib Watermelon01a.mtl
o Watermelon01a
v -0.133263 0.000000 0.000000
v 0.133263 0.000000 0.000000
v 0.000000 -0.000000 -0.111111
v -0.000000 -0.086870 -0.069277
v 0.000000 -0.108326 0.024725
v -0.000000 -0.048209 0.100108
v 0.000000 0.048209 0.100108
v 0.000000 0.108326 0.024725
v 0.000000 0.086870 -0.069277
v -0.070716 -0.081759 -0.065200
v -0.111115 -0.058166 -0.046386
v -0.070716 -0.101952 0.023270
v -0.111115 -0.072532 0.016555
v -0.070716 -0.045373 0.094217
v -0.111115 -0.032280 0.067030
v -0.070716 0.045373 0.094217
v -0.111115 0.032280 0.067030
v -0.070716 0.101952 0.023270
v -0.111115 0.072532 0.016555
v -0.070716 0.081759 -0.065200
v -0.111115 0.058166 -0.046386
v -0.111115 0.000000 -0.074397
v -0.070716 0.000000 -0.104573
v 0.070716 -0.000000 -0.104573
v 0.111115 0.000000 -0.074397
v 0.111115 -0.058166 -0.046386
v 0.070716 -0.081759 -0.065200
v 0.111115 -0.072532 0.016555
v 0.070716 -0.101952 0.023270
v 0.111115 -0.032280 0.067030
v 0.070716 -0.045373 0.094217
v 0.111115 0.032280 0.067030
v 0.070716 0.045373 0.094217
v 0.111115 0.072532 0.016555
v 0.070716 0.101952 0.023270
v 0.111115 0.058166 -0.046386
v 0.070716 0.081759 -0.065200
vn 0.9495 -0.1361 -0.2827
vn 0.9495 -0.3059 -0.0698
vn 0.9495 -0.2453 0.1956
vn 0.9495 -0.0000 0.3137
vn 0.9495 0.2453 0.1956
vn 0.9495 0.3059 -0.0698
vn 0.9495 0.1361 -0.2827
vn -0.0830 0.4324 -0.8979
vn -0.0830 0.9716 -0.2218
vn -0.0830 0.7791 0.6213
vn -0.0830 -0.0000 0.9965
vn -0.0830 -0.7791 0.6213
vn -0.0830 -0.9716 -0.2218
vn -0.0830 -0.4324 -0.8979
vn -0.9495 -0.1361 -0.2827
vn -0.5583 -0.3600 -0.7475
vn -0.9495 -0.3059 -0.0698
vn -0.5583 -0.8088 -0.1846
vn -0.9495 -0.2453 0.1956
vn -0.5583 -0.6486 0.5173
vn -0.9495 -0.0000 0.3137
vn -0.5583 -0.0000 0.8296
vn -0.9495 0.2453 0.1956
vn -0.5583 0.6486 0.5173
vn -0.9495 0.3059 -0.0698
vn -0.5583 0.8088 -0.1846
vn -0.9495 0.1361 -0.2827
vn -0.5583 0.3600 -0.7475
vn 0.0830 0.4324 -0.8979
vn 0.5583 0.3600 -0.7475
vn 0.0830 0.9716 -0.2218
vn 0.5583 0.8088 -0.1846
vn 0.0830 0.7791 0.6213
vn 0.5583 0.6486 0.5173
vn 0.0830 -0.0000 0.9965
vn 0.5583 -0.0000 0.8296
vn 0.0830 -0.7791 0.6213
vn 0.5583 -0.6486 0.5173
vn 0.0830 -0.9716 -0.2218
vn 0.5583 -0.8088 -0.1846
vn 0.0830 -0.4324 -0.8979
vn 0.5583 -0.3600 -0.7475
vt 0.391667 0.843750
vt 0.308333 1.000000
vt 0.308333 0.796875
vt 0.216667 0.843750
vt 0.266667 0.781250
vt 0.225000 1.000000
vt 0.191667 0.781250
vt 0.091667 0.875000
vt 0.375000 0.875000
vt 0.233333 1.000000
vt 0.191667 0.781250
vt 0.100000 0.875000
vt 0.175000 0.500000
vt 0.033333 0.265625
vt 0.183333 0.328125
vt 0.291667 0.500000
vt 0.283333 0.328125
vt 0.458333 0.500000
vt 0.433333 0.265625
vt 0.166667 0.500000
vt 0.025000 0.265625
vt 0.291667 0.328125
vt 0.308333 0.515625
vt 0.175000 0.296875
vt 0.308333 0.343750
vt 0.441667 0.515625
vt 0.433333 0.296875
vt 0.308333 0.000000
vt 0.400000 0.156250
vt 0.308333 0.218750
vt 0.208333 0.171875
vt 0.241667 0.000000
vt 0.275000 0.218750
vt 0.191667 0.218750
vt 0.091667 0.109375
vt 0.233333 0.000000
vt 0.375000 0.125000
vt 0.191667 0.218750
vt 0.091667 0.125000
vt 0.183333 0.671875
vt 0.000000 0.500000
vt 0.033333 0.750000
vt 0.283333 0.671875
vt 0.433333 0.734375
vt 0.166667 0.671875
vt 0.025000 0.734375
vt 0.291667 0.671875
vt 0.300000 0.500000
vt 0.300000 0.671875
vt 0.166667 0.515625
vt 0.183333 0.718750
vt 0.433333 0.718750
s 0
usemtl Primary
f 25/1/1 2/2/1 26/3/1
f 26/3/2 2/2/2 28/4/2
f 28/5/3 2/6/3 30/7/3
f 30/7/4 2/6/4 32/8/4
f 32/9/5 2/10/5 34/5/5
f 34/5/6 2/10/6 36/11/6
f 36/11/7 2/10/7 25/12/7
f 9/13/8 23/14/8 20/15/8
f 8/16/9 20/15/9 18/17/9
f 7/18/10 18/17/10 16/19/10
f 6/20/11 16/21/11 14/15/11
f 12/22/12 6/20/12 14/15/12
f 4/23/13 12/24/13 10/25/13
f 3/26/14 10/25/14 23/27/14
f 1/28/15 22/29/15 11/30/15
f 23/27/16 11/30/16 22/29/16
f 1/28/17 11/30/17 13/31/17
f 10/25/18 13/31/18 11/30/18
f 1/32/19 13/33/19 15/34/19
f 12/22/20 15/34/20 13/33/20
f 1/32/21 15/34/21 17/35/21
f 15/34/22 16/21/22 17/35/22
f 1/36/23 17/37/23 19/33/23
f 17/37/24 18/17/24 19/33/24
f 1/36/25 19/33/25 21/38/25
f 19/33/26 20/15/26 21/38/26
f 1/36/27 21/38/27 22/39/27
f 21/38/28 23/14/28 22/39/28
f 37/40/29 3/41/29 9/13/29
f 36/11/30 24/42/30 37/40/30
f 35/43/31 9/13/31 8/16/31
f 34/5/32 37/40/32 35/43/32
f 7/18/33 35/43/33 8/16/33
f 32/9/34 35/43/34 33/44/34
f 31/45/35 7/41/35 6/20/35
f 30/7/36 33/46/36 31/45/36
f 29/47/37 6/20/37 5/48/37
f 28/5/38 31/45/38 29/47/38
f 27/49/39 5/50/39 4/23/39
f 26/3/40 29/51/40 27/49/40
f 24/52/41 4/23/41 3/26/41
f 24/52/42 26/3/42 27/49/42
f 9/13/8 3/41/8 23/14/8
f 8/16/9 9/13/9 20/15/9
f 7/18/10 8/16/10 18/17/10
f 6/20/11 7/41/11 16/21/11
f 12/22/12 5/48/12 6/20/12
f 4/23/13 5/50/13 12/24/13
f 3/26/14 4/23/14 10/25/14
f 23/27/16 10/25/16 11/30/16
f 10/25/18 12/24/18 13/31/18
f 12/22/20 14/15/20 15/34/20
f 15/34/22 14/15/22 16/21/22
f 17/37/24 16/19/24 18/17/24
f 19/33/26 18/17/26 20/15/26
f 21/38/28 20/15/28 23/14/28
f 37/40/29 24/42/29 3/41/29
f 36/11/30 25/12/30 24/42/30
f 35/43/31 37/40/31 9/13/31
f 34/5/32 36/11/32 37/40/32
f 7/18/33 33/44/33 35/43/33
f 32/9/34 34/5/34 35/43/34
f 31/45/35 33/46/35 7/41/35
f 30/7/36 32/8/36 33/46/36
f 29/47/37 31/45/37 6/20/37
f 28/5/38 30/7/38 31/45/38
f 27/49/39 29/51/39 5/50/39
f 26/3/40 28/4/40 29/51/40
f 24/52/41 27/49/41 4/23/41
f 24/52/42 25/1/42 26/3/42
